<?xml version="1.0" encoding="UTF-8" standalone="no"?>
<svg
   xmlns:dc="http://purl.org/dc/elements/1.1/"
   xmlns:cc="http://creativecommons.org/ns#"
   xmlns:rdf="http://www.w3.org/1999/02/22-rdf-syntax-ns#"
   xmlns:svg="http://www.w3.org/2000/svg"
   xmlns="http://www.w3.org/2000/svg"
   viewBox="0 0 306.90668 158.98666"
   height="158.98666"
   width="306.90668"
   xml:space="preserve"
   id="svg2"
   version="1.1"><metadata
     id="metadata8"><rdf:RDF><cc:Work
         rdf:about=""><dc:format>image/svg+xml</dc:format><dc:type
           rdf:resource="http://purl.org/dc/dcmitype/StillImage" /></cc:Work></rdf:RDF></metadata><defs
     id="defs6" /><g
     transform="matrix(1.3333333,0,0,-1.3333333,0,158.98667)"
     id="g10"><g
       transform="scale(0.1)"
       id="g12"><path
         id="path14"
         style="fill:#ffffff;fill-opacity:1;fill-rule:nonzero;stroke:none"
         d="m 204.402,4.37109 h -59 L 117.68,158.969 104.699,245.012 H 150.59 L 174.762,56.3984 199.074,245.012 h 45.891 L 231.988,158.699 204.402,4.37109" /><path
         id="path16"
         style="fill:#ffffff;fill-opacity:1;fill-rule:nonzero;stroke:none"
         d="m 395.898,245.012 h 107.075 v -38.371 h -61.594 v -62.692 h 52.988 V 105.43 H 441.379 V 42.75 h 61.594 V 4.37109 H 395.898 V 245.012" /><path
         id="path18"
         style="fill:#ffffff;fill-opacity:1;fill-rule:nonzero;stroke:none"
         d="M 636.691,52.0391 C 636.691,17.4297 617.027,0.0898438 577.691,0 538.449,0 518.828,17.3516 518.828,52.0391 V 196.258 c 0,34.597 19.621,51.898 58.863,51.898 39.336,0 59,-17.301 59,-51.898 v -34.149 h -45.476 v 34.149 c 0,9.015 -4.461,13.566 -13.391,13.656 h -0.269 c -8.832,0 -13.25,-4.551 -13.25,-13.656 V 52.0391 c 0,-9.0196 4.461,-13.5196 13.386,-13.5196 9.012,0 13.524,4.5 13.524,13.5196 v 34.1406 h 45.476 V 52.0391" /><path
         id="path20"
         style="fill:#ffffff;fill-opacity:1;fill-rule:nonzero;stroke:none"
         d="m 658.008,245.012 h 45.48 V 143.949 h 26.903 v 101.063 h 45.484 V 4.37109 H 730.391 V 105.43 H 703.488 V 4.37109 h -45.48 V 245.012" /><path
         id="path22"
         style="fill:#ffffff;fill-opacity:1;fill-rule:nonzero;stroke:none"
         d="m 811.379,245.012 h 44.934 l 30.316,-118.543 v 118.543 h 42.617 V 4.37109 H 884.309 L 855.355,119.641 V 4.37109 H 811.379 V 245.012" /><path
         id="path24"
         style="fill:#ffffff;fill-opacity:1;fill-rule:nonzero;stroke:none"
         d="m 1034.4,196.258 c 0,9.015 -4.46,13.566 -13.38,13.656 h -0.28 c -8.83,0 -13.25,-4.551 -13.25,-13.656 V 52.0391 c 0,-9.0196 4.47,-13.5196 13.39,-13.5196 9.01,0 13.52,4.5 13.52,13.5196 z m 45.48,-144.2189 c 0,-34.6094 -19.67,-51.9492562 -59,-52.0391 -39.247,0 -58.864,17.3516 -58.864,52.0391 V 196.258 c 0,34.597 19.617,51.898 58.864,51.898 39.33,0 59,-17.301 59,-51.898 V 52.0391" /><path
         id="path26"
         style="fill:#ffffff;fill-opacity:1;fill-rule:nonzero;stroke:none"
         d="m 1279.54,4.37109 h -58.99 l -27.73,154.59791 -12.98,86.043 h 45.89 l 24.18,-188.6136 24.31,188.6136 h 45.89 L 1307.13,158.699 1279.54,4.37109" /><path
         id="path28"
         style="fill:#ffffff;fill-opacity:1;fill-rule:nonzero;stroke:none"
         d="m 1527.84,52.0391 c 0,-34.6094 -19.67,-51.9492562 -59,-52.0391 -39.25,0 -58.87,17.3516 -58.87,52.0391 V 196.258 c 0,34.597 19.62,51.898 58.87,51.898 39.33,0 59,-17.301 59,-51.898 v -34.149 h -45.49 v 34.149 c 0,9.015 -4.45,13.566 -13.37,13.656 h -0.28 c -8.83,0 -13.25,-4.551 -13.25,-13.656 V 52.0391 c 0,-9.0196 4.47,-13.5196 13.39,-13.5196 9.01,0 13.51,4.5 13.51,13.5196 v 34.1406 h 45.49 V 52.0391" /><path
         id="path30"
         style="fill:#ffffff;fill-opacity:1;fill-rule:nonzero;stroke:none"
         d="M 1549.25,4.37109 V 245.012 h 45.47 V 42.75 h 61.6 V 4.37109 h -107.07" /><path
         id="path32"
         style="fill:#ffffff;fill-opacity:1;fill-rule:nonzero;stroke:none"
         d="m 1739.09,196.258 c 0,9.015 -4.46,13.566 -13.38,13.656 h -0.28 c -8.83,0 -13.25,-4.551 -13.25,-13.656 V 52.0391 c 0,-9.0196 4.47,-13.5196 13.39,-13.5196 9.01,0 13.52,4.5 13.52,13.5196 z m 45.48,-144.2189 c 0,-34.6094 -19.66,-51.9492562 -59,-52.0391 -39.24,0 -58.86,17.3516 -58.86,52.0391 V 196.258 c 0,34.597 19.62,51.898 58.86,51.898 39.34,0 59,-17.301 59,-51.898 V 52.0391" /><path
         id="path34"
         style="fill:#ffffff;fill-opacity:1;fill-rule:nonzero;stroke:none"
         d="m 1933.85,52.0391 c 0,-34.6094 -19.67,-51.9492562 -59.01,-52.0391 -39.23,0 -58.86,17.3516 -58.86,52.0391 V 244.469 h 45.49 V 52.0391 c 0,-9.0196 4.45,-13.5196 13.37,-13.5196 9.02,0 13.53,4.5 13.53,13.5196 V 244.469 h 45.48 V 52.0391" /><path
         id="path36"
         style="fill:#ffffff;fill-opacity:1;fill-rule:nonzero;stroke:none"
         d="M 2013.46,206.641 V 42.75 h 13.53 c 8.92,0 13.37,4.5117 13.37,13.5195 V 192.98 c 0,9.102 -4.45,13.661 -13.37,13.661 z m -45.48,38.371 h 62.97 c 36.59,-0.09 54.9,-17.434 54.9,-52.032 V 56.2695 c 0,-34.5078 -19.08,-51.80856 -57.23,-51.89841 h -60.64 V 245.012" /><path
         id="path38"
         style="fill:#ffffff;fill-opacity:1;fill-rule:nonzero;stroke:none"
         d="m 2235.12,52.0391 c 0,-34.6094 -19.66,-51.9492562 -59,-52.0391 -39.23,0 -58.86,17.3516 -58.86,52.0391 V 244.469 h 45.48 V 52.0391 c 0,-9.0196 4.46,-13.5196 13.38,-13.5196 9.02,0 13.53,4.5 13.53,13.5196 V 244.469 h 45.47 V 52.0391" /><path
         id="path40"
         style="fill:#ffffff;fill-opacity:1;fill-rule:nonzero;stroke:none"
         d="M 1087.62,1192.41 C 843.543,1148.5 694.055,1003.64 587.863,844.105 372.641,875.133 214.703,811.953 117.266,749.676 74.4844,722.324 35.3477,689.074 0,652.496 l 128.824,-128.82 c 24.699,25.918 53.223,50.629 86.809,72.097 111.699,71.411 249.375,91.543 398.039,58.278 l 68.156,-21.422 32.508,67.82 c 68.98,130.293 226.773,278.934 445.024,319.781 l -71.74,172.18" /><path
         id="path42"
         style="fill:#ffffff;fill-opacity:1;fill-rule:nonzero;stroke:none"
         d="m 2301.79,799.742 c -97.86,49.606 -236.29,88.84 -414.78,63.11 -75.15,112.91 -172.82,217.688 -309.54,285.308 l -83.09,-172.586 c 125.44,-65.922 217.91,-165.25 266.16,-256.379 l 32.51,-67.824 68.16,21.426 c 135.28,30.269 261.22,15.836 367.01,-40.727 l 73.57,167.672" /><path
         id="path44"
         style="fill:#ffffff;fill-opacity:1;fill-rule:nonzero;stroke:none"
         d="m 373.215,162.109 v 34.149 c 0,34.597 -19.664,51.898 -58.996,51.898 -39.246,0 -58.864,-17.301 -58.864,-51.898 v -22.129 c 0,-22.399 12.469,-41.43 37.422,-57.078 23.305,-14.762 34.961,-27.4612 34.961,-38.1096 V 52.0391 c 0,-9.0196 -4.461,-13.5196 -13.386,-13.5196 -9.012,0 -13.524,4.5 -13.524,13.5196 V 86.1797 H 255.355 V 52.0391 C 255.355,17.4297 275.02,0.0898438 314.352,0 c 39.246,0 58.863,17.3516 58.863,52.0391 v 29.7695 c 0,21.9414 -12.473,40.7034 -37.418,56.2694 -23.309,14.75 -34.969,27.043 -34.969,36.871 v 21.309 c 0,9.105 4.418,13.656 13.25,13.656 h 0.274 c 8.925,-0.09 13.386,-4.641 13.386,-13.656 v -34.149 h 45.477" /><path
         id="path46"
         style="fill:#ffffff;fill-opacity:1;fill-rule:nonzero;stroke:none"
         d="m 326.52,268.277 37.597,37.899 v 2.554 h -38.199 l -13.684,-19.398 -13.836,19.398 h -38.351 v -2.406 l 37.75,-38.047 h 28.723" /></g></g></svg>